<?xml version="1.0" encoding="UTF-8"?>
<svg id="a" data-name="blanc" xmlns="http://www.w3.org/2000/svg" viewBox="0 0 623.62 129.92">
  <defs>
    <style>
      .b {
        fill: #000000;
      }
    </style>
  </defs>
  <rect class="b" x="136.42" width="19.49" height="129.92"/>
  <rect class="b" x="604.13" y="110.43" width="19.49" height="19.49"/>
  <path class="b" d="M48.72,32.48c-10.98,0-21.08,3.68-29.23,9.81l-.05,.05V0H.05l-.05,81.15H0s0,.04,0,.06c0,26.91,21.81,48.72,48.72,48.72s48.72-21.81,48.72-48.72-21.81-48.72-48.72-48.72Zm0,77.95c-16.14,0-29.23-13.09-29.23-29.23s13.09-29.23,29.23-29.23,29.23,13.09,29.23,29.23-13.09,29.23-29.23,29.23Z"/>
  <path class="b" d="M272.83,32.48v9.81c-8.15-6.13-18.25-9.81-29.23-9.81-26.91,0-48.72,21.81-48.72,48.72s21.81,48.72,48.72,48.72c10.98,0,21.08-3.68,29.23-9.81v9.81h19.49V32.48h-19.49Zm-29.23,77.95c-16.14,0-29.23-13.09-29.23-29.23s13.09-29.23,29.23-29.23,29.23,13.09,29.23,29.23-13.09,29.23-29.23,29.23Z"/>
  <path class="b" d="M543.97,90.95c-4.02,11.35-14.81,19.49-27.53,19.49-16.14,0-29.24-13.09-29.24-29.23s13.09-29.23,29.24-29.23c12.72,0,23.51,8.14,27.53,19.49h20.21c-4.52-22.24-24.17-38.98-47.74-38.98-26.91,0-48.72,21.81-48.72,48.72s21.82,48.72,48.72,48.72c23.57,0,43.23-16.74,47.74-38.98h-20.21Z"/>
  <path class="b" d="M380.02,32.48c-26.91,0-48.72,21.81-48.72,48.72v48.72h19.49v-48.72c0-16.14,13.09-29.23,29.24-29.23s29.23,13.09,29.23,29.23v48.72h19.49v-48.72c0-26.91-21.81-48.72-48.72-48.72Z"/>
</svg>